<svg width="30" height="30" viewBox="0 0 30 30" fill="none" xmlns="http://www.w3.org/2000/svg">
<path d="M22.2364 9.67473C21.9807 9.41886 21.528 9.41886 21.2723 9.67473L8.30382 22.6541C8.14869 22.8094 8.07812 23.0294 8.1127 23.2459C8.14798 23.4625 8.28516 23.6491 8.48088 23.747L9.54553 24.2801V26.073L6.28363 27.0064L2.9911 23.7111L3.9237 20.4463H5.71506L6.2477 21.5119C6.34556 21.7078 6.53202 21.8451 6.74839 21.8804C6.78501 21.8864 6.82164 21.889 6.85756 21.889C7.03667 21.889 7.21111 21.8184 7.33965 21.6891L20.3081 8.70973C20.436 8.58176 20.5079 8.40854 20.5079 8.22726C20.5079 8.04598 20.436 7.87276 20.3081 7.74479L17.8006 5.2351C17.6728 5.10713 17.4997 5.03516 17.3185 5.03516H17.3172C17.1354 5.0358 16.9616 5.10847 16.8345 5.23708L2.9252 19.2835C2.91849 19.2903 2.91881 19.3008 2.91235 19.3077C2.84236 19.3834 2.78394 19.4707 2.75338 19.5767L1.56952 23.7224L0.0261692 29.1303C-0.0417778 29.3682 0.0248269 29.6248 0.199968 29.8C0.32979 29.93 0.503588 30 0.682053 30C0.744631 30 0.807209 29.9913 0.869147 29.9739L6.27238 28.4293L10.4145 27.2444C10.427 27.2408 10.4356 27.2314 10.4478 27.2271C10.4908 27.2123 10.5284 27.1881 10.568 27.1647C10.6069 27.1417 10.6457 27.1211 10.6786 27.0915C10.6874 27.0837 10.699 27.0808 10.7075 27.0724L24.742 13.1513C24.8704 13.0241 24.943 12.8501 24.9437 12.6682C24.9443 12.487 24.8724 12.313 24.7439 12.1844L22.2364 9.67473Z" fill="#303030"/>
<path d="M29.2009 4.86854L25.11 0.7742C24.0793 -0.257406 22.2862 -0.259388 21.2514 0.776182L18.7539 3.29853C18.4896 3.56578 18.4902 3.99558 18.7559 4.26149L25.7165 11.228C25.8497 11.3613 26.0242 11.428 26.1986 11.428C26.3724 11.428 26.5455 11.362 26.6786 11.2301L29.2008 8.72842C29.7162 8.21265 29.9998 7.52755 29.9998 6.79854C29.9998 6.06953 29.7163 5.38431 29.2009 4.86854Z" fill="#303030"/>
</svg>
