<svg width="23" height="60" viewBox="0 0 23 60" fill="none" xmlns="http://www.w3.org/2000/svg">
<path d="M11.2495 15C15.3916 15 18.7495 11.6421 18.7495 7.5C18.7495 3.35786 15.3916 0 11.2495 0C7.10738 0 3.74951 3.35786 3.74951 7.5C3.74951 11.6421 7.10738 15 11.2495 15Z" fill="white"/>
<path d="M22.4848 35.385L20.7823 22.125C20.5911 20.2012 18.9861 18.75 17.0548 18.75H14.9998C14.5011 18.75 14.0248 18.9487 13.6723 19.2975L11.2498 21.72L8.82733 19.2975C8.47483 18.9487 7.99858 18.75 7.49983 18.75H5.44858C3.51358 18.75 1.90858 20.2013 1.72108 22.0763L0.0148263 35.3888C-0.0526737 35.9213 0.112326 36.4613 0.468576 36.8625C0.824826 37.2675 1.33483 37.5 1.87483 37.5H3.89983L5.46733 56.625C5.65483 58.545 7.26358 60 9.19858 60H13.3048C15.2398 60 16.8448 58.545 17.0398 56.5912L18.6036 37.5H20.6248C21.1648 37.5 21.6748 37.2675 22.0311 36.8625C22.3911 36.4613 22.5561 35.9212 22.4848 35.385Z" fill="white"/>
</svg>
