<svg width="61" height="60" viewBox="0 0 61 60" fill="none" xmlns="http://www.w3.org/2000/svg">
<path d="M30 15C34.1421 15 37.5 11.6421 37.5 7.5C37.5 3.35786 34.1421 0 30 0C25.8579 0 22.5 3.35786 22.5 7.5C22.5 11.6421 25.8579 15 30 15Z" fill="#30628F"/>
<path d="M41.2353 35.385L39.5328 22.125C39.3416 20.2012 37.7366 18.75 35.8053 18.75H33.7503C33.2516 18.75 32.7753 18.9487 32.4228 19.2975L30.0003 21.72L27.5778 19.2975C27.2253 18.9487 26.7491 18.75 26.2503 18.75H24.1991C22.2641 18.75 20.6591 20.2013 20.4716 22.0763L18.7653 35.3888C18.6978 35.9213 18.8628 36.4613 19.2191 36.8625C19.5753 37.2675 20.0853 37.5 20.6253 37.5H22.6503L24.2178 56.625C24.4053 58.545 26.0141 60 27.9491 60H32.0553C33.9903 60 35.5953 58.545 35.7903 56.5912L37.3541 37.5H39.3753C39.9153 37.5 40.4253 37.2675 40.7816 36.8625C41.1416 36.4613 41.3066 35.9212 41.2353 35.385Z" fill="#30628F"/>
<path d="M48.75 15C52.8921 15 56.25 11.6421 56.25 7.5C56.25 3.35786 52.8921 0 48.75 0C44.6079 0 41.25 3.35786 41.25 7.5C41.25 11.6421 44.6079 15 48.75 15Z" fill="#30628F"/>
<path d="M11.25 0C7.11375 0 3.75 3.36375 3.75 7.5C3.75 11.6362 7.11375 15 11.25 15C15.3825 15 18.75 11.6362 18.75 7.5C18.75 3.36375 15.3825 0 11.25 0Z" fill="#30628F"/>
<path d="M59.9853 35.385L58.2828 22.1288C58.0916 20.2013 56.4903 18.75 54.5553 18.75H52.5003C52.0016 18.75 51.5253 18.9487 51.1728 19.2975L48.7503 21.72L46.3278 19.2975C45.9753 18.9487 45.4991 18.75 45.0041 18.75H42.9491C42.7166 18.75 42.5066 18.8325 42.2853 18.8737C42.7691 19.7287 43.1478 20.655 43.2603 21.6937L44.9591 34.9088C45.1691 36.5175 44.6666 38.1375 43.5866 39.3562C43.0766 39.9412 42.4241 40.3538 41.7266 40.6763L42.9716 52.875C43.1628 54.7987 44.7678 56.25 46.7028 56.25H50.8091C52.7441 56.25 54.3491 54.795 54.5441 52.8412L56.1041 37.5H58.1253C58.6653 37.5 59.1753 37.2675 59.5316 36.8625C59.8916 36.4613 60.0566 35.9212 59.9853 35.385Z" fill="#30628F"/>
<path d="M16.4024 39.3375C15.3374 38.1337 14.8424 36.5175 15.0449 34.9163L16.7512 21.6C16.8487 20.6025 17.2162 19.7025 17.6849 18.87C17.4749 18.8325 17.2762 18.75 17.0549 18.75H14.9999C14.5012 18.75 14.0249 18.9487 13.6724 19.2975L11.2499 21.72L8.82744 19.2975C8.47494 18.9487 7.99869 18.75 7.50369 18.75H5.44858C3.51358 18.75 1.90858 20.2013 1.72108 22.0763L0.0148263 35.3888C-0.0526737 35.9213 0.112326 36.4613 0.468576 36.8625C0.824826 37.2675 1.33858 37.5 1.87483 37.5H3.89983L5.46733 52.875C5.65483 54.795 7.26358 56.25 9.19858 56.25H13.3048C15.2398 56.25 16.8448 54.795 17.0398 52.8412L18.2848 40.6725C17.5837 40.3462 16.9274 39.93 16.4024 39.3375Z" fill="#30628F"/>
</svg>
