<svg width="17" height="20" viewBox="0 0 17 20" fill="none" xmlns="http://www.w3.org/2000/svg">
<path d="M15.625 2.5H13.75V0.625C13.75 0.28 13.47 0 13.125 0H1.875C0.84125 0 0 0.84125 0 1.875V17.5C0 18.8787 1.12125 20 2.5 20H15.625C15.97 20 16.25 19.72 16.25 19.375V3.125C16.25 2.78 15.97 2.5 15.625 2.5ZM12.5 15.625C12.5 15.97 12.22 16.25 11.875 16.25H4.375C4.03 16.25 3.75 15.97 3.75 15.625V14.375C3.75 12.6512 5.1525 11.25 6.875 11.25H9.375C11.0988 11.25 12.5 12.6512 12.5 14.375V15.625ZM5.625 7.5C5.625 6.12125 6.74625 5 8.125 5C9.50375 5 10.625 6.12125 10.625 7.5C10.625 8.87875 9.50375 10 8.125 10C6.74625 10 5.625 8.87875 5.625 7.5ZM12.5 2.5H1.875C1.53 2.5 1.25 2.22 1.25 1.875C1.25 1.53 1.53 1.25 1.875 1.25H12.5V2.5Z" fill="white"/>
</svg>
