<svg width="36" height="36" viewBox="0 0 36 36" fill="none" xmlns="http://www.w3.org/2000/svg">
<path d="M12.078 10.2716L16.2 6.13055V23.3969C16.2 23.8744 16.3896 24.3323 16.7272 24.67C17.0648 25.0076 17.5226 25.1973 18 25.1973C18.4774 25.1973 18.9352 25.0076 19.2728 24.67C19.6104 24.3323 19.8 23.8744 19.8 23.3969V6.13055L23.922 10.2716C24.0893 10.4403 24.2884 10.5743 24.5078 10.6657C24.7271 10.7571 24.9624 10.8042 25.2 10.8042C25.4376 10.8042 25.6729 10.7571 25.8922 10.6657C26.1116 10.5743 26.3107 10.4403 26.478 10.2716C26.6467 10.1042 26.7806 9.90508 26.872 9.68568C26.9634 9.46628 27.0104 9.23095 27.0104 8.99327C27.0104 8.75559 26.9634 8.52026 26.872 8.30086C26.7806 8.08145 26.6467 7.88232 26.478 7.71495L19.278 0.513152C19.1068 0.349238 18.905 0.220749 18.684 0.135058C18.2458 -0.0450193 17.7542 -0.0450193 17.316 0.135058C17.095 0.220749 16.8932 0.349238 16.722 0.513152L9.522 7.71495C9.35417 7.88282 9.22104 8.08211 9.13021 8.30145C9.03938 8.52078 8.99263 8.75586 8.99263 8.99327C8.99263 9.23067 9.03938 9.46575 9.13021 9.68509C9.22104 9.90442 9.35417 10.1037 9.522 10.2716C9.68983 10.4395 9.88907 10.5726 10.1084 10.6635C10.3276 10.7543 10.5627 10.8011 10.8 10.8011C11.0373 10.8011 11.2724 10.7543 11.4916 10.6635C11.7109 10.5726 11.9102 10.4395 12.078 10.2716ZM34.2 17.9955C33.7226 17.9955 33.2648 18.1852 32.9272 18.5228C32.5896 18.8605 32.4 19.3184 32.4 19.796V30.5987C32.4 31.0762 32.2104 31.5341 31.8728 31.8718C31.5352 32.2094 31.0774 32.3991 30.6 32.3991H5.4C4.92261 32.3991 4.46477 32.2094 4.12721 31.8718C3.78964 31.5341 3.6 31.0762 3.6 30.5987V19.796C3.6 19.3184 3.41036 18.8605 3.07279 18.5228C2.73523 18.1852 2.27739 17.9955 1.8 17.9955C1.32261 17.9955 0.864773 18.1852 0.527208 18.5228C0.189642 18.8605 0 19.3184 0 19.796V30.5987C0 32.0312 0.568927 33.405 1.58162 34.418C2.59432 35.4309 3.96783 36 5.4 36H30.6C32.0322 36 33.4057 35.4309 34.4184 34.418C35.4311 33.405 36 32.0312 36 30.5987V19.796C36 19.3184 35.8104 18.8605 35.4728 18.5228C35.1352 18.1852 34.6774 17.9955 34.2 17.9955Z" fill="#009EFD"/>
</svg>
